<mxfile host="app.diagrams.net" modified="2020-09-18T00:19:44.222Z" agent="5.0 (Macintosh; Intel Mac OS X 10_15_6) AppleWebKit/537.36 (KHTML, like Gecko) Chrome/85.0.4183.102 Safari/537.36" etag="JphnSjmzKG1bBiyunUZq" version="13.7.1" type="github">
  <diagram id="SSHkFMAso1kUQDBTXws7" name="Page-1">
    <mxGraphModel dx="2432" dy="1437" grid="1" gridSize="10" guides="1" tooltips="1" connect="1" arrows="1" fold="1" page="1" pageScale="1" pageWidth="1400" pageHeight="1800" math="0" shadow="0">
      <root>
        <mxCell id="0" />
        <mxCell id="1" parent="0" />
        <mxCell id="zAVQnLuHlQMzzFiC_rc0-1" value="" style="rounded=1;whiteSpace=wrap;html=1;strokeColor=#7EA6E0;strokeWidth=2;" vertex="1" parent="1">
          <mxGeometry x="110" y="70" width="1190" height="630" as="geometry" />
        </mxCell>
        <mxCell id="zAVQnLuHlQMzzFiC_rc0-2" value="&lt;font style=&quot;font-size: 26px ; font-weight: normal&quot;&gt;CHUM / Models / 5241&lt;/font&gt;&lt;span style=&quot;font-weight: normal&quot;&gt;&lt;br&gt;&lt;/span&gt;" style="text;html=1;strokeColor=none;fillColor=none;align=left;verticalAlign=middle;whiteSpace=wrap;rounded=0;labelBackgroundColor=#ffffff;fontSize=15;fontStyle=1" vertex="1" parent="1">
          <mxGeometry x="178.5" y="140" width="670.62" height="70" as="geometry" />
        </mxCell>
        <mxCell id="zAVQnLuHlQMzzFiC_rc0-6" value="&lt;div style=&quot;text-align: left&quot;&gt;&lt;span style=&quot;color: rgb(0 , 0 , 0) ; font-size: 14px ; font-weight: normal&quot;&gt;ID 5241&lt;/span&gt;&lt;/div&gt;&lt;div style=&quot;text-align: left&quot;&gt;&lt;span style=&quot;color: rgb(0 , 0 , 0) ; font-size: 14px&quot;&gt;Mortality prediction using laboratory &lt;/span&gt;&lt;span style=&quot;color: rgb(0 , 0 , 0) ; font-size: 14px&quot;&gt;data&lt;/span&gt;&lt;/div&gt;&lt;div style=&quot;text-align: left&quot;&gt;&lt;br&gt;&lt;/div&gt;&lt;div style=&quot;text-align: left&quot;&gt;&lt;br&gt;&lt;/div&gt;&lt;div style=&quot;text-align: left&quot;&gt;&lt;br&gt;&lt;/div&gt;&lt;div style=&quot;text-align: left&quot;&gt;&lt;br&gt;&lt;/div&gt;&lt;div style=&quot;text-align: left&quot;&gt;&lt;br&gt;&lt;/div&gt;&lt;div style=&quot;text-align: left&quot;&gt;&lt;br&gt;&lt;/div&gt;" style="text;html=1;strokeColor=#666666;fillColor=#f5f5f5;align=center;verticalAlign=middle;whiteSpace=wrap;rounded=1;labelBackgroundColor=none;fontSize=26;fontStyle=1;fontColor=#333333;" vertex="1" parent="1">
          <mxGeometry x="893" y="230" width="348.5" height="300" as="geometry" />
        </mxCell>
        <mxCell id="zAVQnLuHlQMzzFiC_rc0-16" value="" style="shape=image;html=1;verticalAlign=top;verticalLabelPosition=bottom;labelBackgroundColor=#ffffff;imageAspect=0;aspect=fixed;image=https://cdn2.iconfinder.com/data/icons/picol-vector/32/folder_sans_run-128.png;rounded=1;strokeColor=#CCCCCC;strokeWidth=2;fillColor=#FAFAFA;fontSize=19;align=center;" vertex="1" parent="1">
          <mxGeometry x="1024.85" y="410" width="50" height="50" as="geometry" />
        </mxCell>
        <mxCell id="zAVQnLuHlQMzzFiC_rc0-17" value="" style="shape=image;html=1;verticalAlign=top;verticalLabelPosition=bottom;labelBackgroundColor=#ffffff;imageAspect=0;aspect=fixed;image=https://cdn2.iconfinder.com/data/icons/blocked-out-2/29/sync-128.png;rounded=1;strokeColor=#CCCCCC;strokeWidth=2;fillColor=#FAFAFA;fontSize=19;align=center;" vertex="1" parent="1">
          <mxGeometry x="941.22" y="420" width="40" height="40" as="geometry" />
        </mxCell>
        <mxCell id="zAVQnLuHlQMzzFiC_rc0-18" value="&lt;div style=&quot;color: rgb(51 , 51 , 51) ; font-family: &amp;#34;helvetica&amp;#34; ; font-size: 19px ; font-style: normal ; letter-spacing: normal ; text-indent: 0px ; text-transform: none ; word-spacing: 0px&quot;&gt;Train&lt;/div&gt;" style="text;whiteSpace=wrap;html=1;fontSize=19;align=center;" vertex="1" parent="1">
          <mxGeometry x="923.72" y="470" width="75" height="30" as="geometry" />
        </mxCell>
        <mxCell id="zAVQnLuHlQMzzFiC_rc0-19" value="&lt;div style=&quot;color: rgb(51 , 51 , 51) ; font-family: &amp;#34;helvetica&amp;#34; ; font-size: 19px ; font-style: normal ; letter-spacing: normal ; text-indent: 0px ; text-transform: none ; word-spacing: 0px&quot;&gt;Test&lt;/div&gt;" style="text;whiteSpace=wrap;html=1;fontSize=19;align=center;" vertex="1" parent="1">
          <mxGeometry x="1012.3499999999999" y="470" width="75" height="30" as="geometry" />
        </mxCell>
        <mxCell id="zAVQnLuHlQMzzFiC_rc0-20" value="" style="shape=image;html=1;verticalAlign=top;verticalLabelPosition=bottom;labelBackgroundColor=#ffffff;imageAspect=0;aspect=fixed;image=https://cdn2.iconfinder.com/data/icons/picol-vector/32/database_edit-128.png;rounded=1;strokeColor=#CCCCCC;strokeWidth=2;fillColor=#FAFAFA;fontSize=19;align=center;" vertex="1" parent="1">
          <mxGeometry x="1124.28" y="415" width="50" height="50" as="geometry" />
        </mxCell>
        <mxCell id="zAVQnLuHlQMzzFiC_rc0-21" value="&lt;div style=&quot;color: rgb(51 , 51 , 51) ; font-family: &amp;#34;helvetica&amp;#34; ; font-size: 19px ; font-style: normal ; letter-spacing: normal ; text-indent: 0px ; text-transform: none ; word-spacing: 0px&quot;&gt;Edit&lt;/div&gt;" style="text;whiteSpace=wrap;html=1;fontSize=19;align=center;" vertex="1" parent="1">
          <mxGeometry x="1111.22" y="470" width="75" height="30" as="geometry" />
        </mxCell>
        <mxCell id="zAVQnLuHlQMzzFiC_rc0-22" value="" style="shape=image;html=1;verticalAlign=top;verticalLabelPosition=bottom;labelBackgroundColor=#ffffff;imageAspect=0;aspect=fixed;image=https://cdn2.iconfinder.com/data/icons/infographic-bar-vol-10-2/512/4-128.png;rounded=1;strokeColor=#CCCCCC;strokeWidth=2;fillColor=#FAFAFA;fontSize=19;align=center;fontStyle=1" vertex="1" parent="1">
          <mxGeometry x="262.0600000000001" y="396" width="128" height="128" as="geometry" />
        </mxCell>
        <mxCell id="zAVQnLuHlQMzzFiC_rc0-23" value="&lt;font style=&quot;font-size: 14px&quot;&gt;Execution&lt;/font&gt;" style="text;html=1;strokeColor=none;fillColor=none;align=center;verticalAlign=middle;whiteSpace=wrap;rounded=0;labelBackgroundColor=none;fontSize=19;fontStyle=1" vertex="1" parent="1">
          <mxGeometry x="197.06" y="230" width="40" height="20" as="geometry" />
        </mxCell>
        <mxCell id="zAVQnLuHlQMzzFiC_rc0-24" value="" style="dashed=0;labelPosition=right;align=left;shape=mxgraph.gmdl.radiobutton;strokeColor=#666666;fillColor=none;strokeWidth=2;aspect=fixed;rounded=1;labelBackgroundColor=none;fontSize=19;html=1;" vertex="1" parent="1">
          <mxGeometry x="374.06" y="270" width="16" height="16" as="geometry" />
        </mxCell>
        <mxCell id="zAVQnLuHlQMzzFiC_rc0-25" value="" style="dashed=0;labelPosition=right;align=left;shape=mxgraph.gmdl.radiobutton;strokeColor=#B0B0B0;fillColor=#B0B0B0;strokeWidth=2;aspect=fixed;rounded=1;labelBackgroundColor=none;fontSize=19;html=1;" vertex="1" parent="1">
          <mxGeometry x="191.17000000000002" y="270" width="16" height="16" as="geometry" />
        </mxCell>
        <mxCell id="zAVQnLuHlQMzzFiC_rc0-26" value="&lt;font&gt;&lt;span style=&quot;font-size: 14px&quot;&gt;&lt;b&gt;Concurrent&lt;/b&gt;&lt;br&gt;(Map/Reduce)&lt;/span&gt;&lt;br&gt;&lt;/font&gt;" style="text;html=1;strokeColor=none;fillColor=none;align=left;verticalAlign=middle;whiteSpace=wrap;rounded=0;labelBackgroundColor=none;fontSize=19;" vertex="1" parent="1">
          <mxGeometry x="215.60999999999996" y="276" width="99" height="20" as="geometry" />
        </mxCell>
        <mxCell id="zAVQnLuHlQMzzFiC_rc0-27" value="&lt;font style=&quot;font-size: 14px&quot;&gt;Progress&lt;/font&gt;" style="text;html=1;strokeColor=none;fillColor=none;align=center;verticalAlign=middle;whiteSpace=wrap;rounded=0;labelBackgroundColor=none;fontSize=19;fontStyle=1" vertex="1" parent="1">
          <mxGeometry x="193.51000000000005" y="346" width="40" height="20" as="geometry" />
        </mxCell>
        <mxCell id="zAVQnLuHlQMzzFiC_rc0-28" value="&lt;font&gt;&lt;span style=&quot;font-size: 14px&quot;&gt;&lt;b&gt;Sequential&lt;/b&gt;&lt;br&gt;(Round-Robin)&lt;/span&gt;&lt;br&gt;&lt;/font&gt;" style="text;html=1;strokeColor=none;fillColor=none;align=left;verticalAlign=middle;whiteSpace=wrap;rounded=0;labelBackgroundColor=none;fontSize=19;" vertex="1" parent="1">
          <mxGeometry x="414.06" y="270" width="99" height="26" as="geometry" />
        </mxCell>
        <mxCell id="zAVQnLuHlQMzzFiC_rc0-29" value="&lt;font&gt;&lt;span style=&quot;font-size: 14px&quot;&gt;CHUM&lt;/span&gt;&lt;br&gt;&lt;/font&gt;" style="text;html=1;strokeColor=none;fillColor=none;align=left;verticalAlign=middle;whiteSpace=wrap;rounded=0;labelBackgroundColor=none;fontSize=19;" vertex="1" parent="1">
          <mxGeometry x="187.06" y="399" width="59" height="20" as="geometry" />
        </mxCell>
        <mxCell id="zAVQnLuHlQMzzFiC_rc0-30" value="&lt;font&gt;&lt;span style=&quot;font-size: 14px&quot;&gt;HMR&lt;/span&gt;&lt;br&gt;&lt;/font&gt;" style="text;html=1;strokeColor=none;fillColor=none;align=left;verticalAlign=middle;whiteSpace=wrap;rounded=0;labelBackgroundColor=none;fontSize=19;" vertex="1" parent="1">
          <mxGeometry x="187.56" y="426" width="59" height="20" as="geometry" />
        </mxCell>
        <mxCell id="zAVQnLuHlQMzzFiC_rc0-31" value="&lt;font&gt;&lt;span style=&quot;font-size: 14px&quot;&gt;JGH&lt;/span&gt;&lt;br&gt;&lt;/font&gt;" style="text;html=1;strokeColor=none;fillColor=none;align=left;verticalAlign=middle;whiteSpace=wrap;rounded=0;labelBackgroundColor=none;fontSize=19;" vertex="1" parent="1">
          <mxGeometry x="187.56" y="450" width="59" height="20" as="geometry" />
        </mxCell>
        <mxCell id="zAVQnLuHlQMzzFiC_rc0-32" value="&lt;font&gt;&lt;span style=&quot;font-size: 14px&quot;&gt;MUHC&lt;/span&gt;&lt;br&gt;&lt;/font&gt;" style="text;html=1;strokeColor=none;fillColor=none;align=left;verticalAlign=middle;whiteSpace=wrap;rounded=0;labelBackgroundColor=none;fontSize=19;" vertex="1" parent="1">
          <mxGeometry x="187.56" y="476" width="59" height="20" as="geometry" />
        </mxCell>
        <mxCell id="zAVQnLuHlQMzzFiC_rc0-33" value="&lt;font&gt;&lt;span style=&quot;font-size: 14px&quot;&gt;...&lt;/span&gt;&lt;br&gt;&lt;/font&gt;" style="text;html=1;strokeColor=none;fillColor=none;align=left;verticalAlign=middle;whiteSpace=wrap;rounded=0;labelBackgroundColor=none;fontSize=19;" vertex="1" parent="1">
          <mxGeometry x="189.06" y="500" width="59" height="20" as="geometry" />
        </mxCell>
        <mxCell id="zAVQnLuHlQMzzFiC_rc0-34" value="&lt;font style=&quot;font-size: 14px&quot;&gt;Results&lt;/font&gt;" style="text;html=1;strokeColor=none;fillColor=none;align=center;verticalAlign=middle;whiteSpace=wrap;rounded=0;labelBackgroundColor=none;fontSize=19;fontStyle=1" vertex="1" parent="1">
          <mxGeometry x="191.17000000000002" y="546" width="40" height="20" as="geometry" />
        </mxCell>
        <mxCell id="zAVQnLuHlQMzzFiC_rc0-35" value="&lt;div style=&quot;font-size: 19px&quot;&gt;&lt;span style=&quot;font-weight: normal&quot;&gt;Go to visualizer&lt;/span&gt;&lt;/div&gt;" style="text;html=1;strokeColor=#666666;fillColor=#FAFAFA;align=center;verticalAlign=middle;whiteSpace=wrap;rounded=1;labelBackgroundColor=none;fontSize=19;fontStyle=1;fontColor=#333333;" vertex="1" parent="1">
          <mxGeometry x="180.94" y="596" width="513.12" height="40" as="geometry" />
        </mxCell>
      </root>
    </mxGraphModel>
  </diagram>
</mxfile>
